<svg width="460" height="155" viewBox="0 0 460 155" fill="none" xmlns="http://www.w3.org/2000/svg">
<path d="M391.878 118.85L8.54931 140.762L54.191 32.3918L451.149 39.5599L391.878 118.85Z" fill="#BC2727"/>
<path d="M36.3779 7.34961L327.878 30.0996H63.3779L36.3779 7.34961Z" fill="#BC2727"/>
<path d="M383.378 6.34961L459.878 37.3496L165.378 13.8496L383.378 6.34961Z" fill="#BC2727"/>
<path d="M116.378 137.35L400.378 126.35L171.378 154.35L116.378 137.35Z" fill="#BC2727"/>
<path d="M30.3779 140.35H112.878L150.878 153.35L30.3779 140.35Z" fill="#BC2727"/>
<path d="M113.607 106.025C111.908 106.025 110.531 106.035 109.476 106.055C108.441 106.094 107.621 106.133 107.015 106.172C106.312 106.23 105.795 106.279 105.463 106.318C105.619 105.225 105.755 104.062 105.873 102.832C105.99 101.582 106.097 100.312 106.195 99.0234C106.293 97.7344 106.371 96.4551 106.429 95.1855C106.488 93.916 106.537 92.7051 106.576 91.5527C106.654 88.8379 106.703 86.123 106.722 83.4082C106.703 80.6934 106.654 78.0664 106.576 75.5273C106.537 74.4531 106.488 73.3398 106.429 72.1875C106.371 71.0156 106.302 69.873 106.224 68.7598C106.146 67.6465 106.048 66.582 105.931 65.5664C105.834 64.5508 105.716 63.6328 105.58 62.8125H107.484C108.539 62.8125 109.447 62.8027 110.209 62.7832C110.97 62.7441 111.605 62.7051 112.113 62.666C112.699 62.627 113.197 62.5781 113.607 62.5195C113.509 64.4727 113.421 66.4355 113.343 68.4082C113.285 70.3809 113.236 72.2656 113.197 74.0625C113.158 75.8398 113.129 77.4707 113.109 78.9551C113.089 80.4395 113.08 81.6797 113.08 82.6758C113.705 82.7148 114.31 82.7344 114.896 82.7344C115.482 82.7344 116.058 82.7344 116.625 82.7344C117.855 82.7344 118.939 82.7148 119.877 82.6758C120.834 82.6172 121.625 82.5586 122.25 82.5C122.25 82.3828 122.24 81.9629 122.22 81.2402C122.22 80.498 122.211 79.5703 122.191 78.457C122.171 77.3438 122.132 76.0938 122.074 74.707C122.035 73.3203 121.976 71.9141 121.898 70.4883C121.82 69.0625 121.722 67.6855 121.605 66.3574C121.488 65.0098 121.341 63.8281 121.166 62.8125H123.041C124.037 62.8125 124.896 62.8027 125.619 62.7832C126.361 62.7441 126.976 62.7051 127.464 62.666C128.031 62.627 128.509 62.5781 128.9 62.5195C128.841 63.7891 128.783 65.0781 128.724 66.3867C128.685 67.6758 128.646 68.9551 128.607 70.2246C128.588 71.4746 128.568 72.6953 128.548 73.8867C128.529 75.0586 128.509 76.1719 128.49 77.2266C128.451 79.6875 128.431 82.0605 128.431 84.3457C128.431 86.6113 128.451 88.916 128.49 91.2598C128.509 92.2559 128.529 93.3105 128.548 94.4238C128.568 95.5176 128.588 96.6406 128.607 97.793C128.646 98.9258 128.685 100.059 128.724 101.191C128.783 102.324 128.841 103.418 128.9 104.473C127.259 104.473 125.931 104.492 124.916 104.531C123.9 104.551 123.109 104.58 122.543 104.619C121.879 104.678 121.38 104.727 121.048 104.766C121.224 103.574 121.371 102.305 121.488 100.957C121.605 99.6094 121.703 98.2422 121.781 96.8555C121.879 95.4688 121.947 94.1016 121.986 92.7539C122.045 91.4062 122.093 90.1465 122.132 88.9746C121.195 88.877 120.296 88.8184 119.437 88.7988C118.578 88.7598 117.757 88.7402 116.976 88.7402C116.156 88.7402 115.414 88.75 114.75 88.7695C114.105 88.7891 113.548 88.8184 113.08 88.8574C113.08 89.9121 113.089 91.1328 113.109 92.5195C113.129 93.9062 113.158 95.3613 113.197 96.8848C113.255 98.3887 113.314 99.9316 113.373 101.514C113.431 103.076 113.509 104.58 113.607 106.025ZM156.071 105.674C154.489 105.635 153.014 105.605 151.647 105.586C150.3 105.586 149.02 105.586 147.809 105.586C145.446 105.586 143.464 105.605 141.862 105.645C140.28 105.703 138.991 105.752 137.995 105.791C136.823 105.85 135.895 105.908 135.212 105.967C135.348 104.658 135.466 103.34 135.563 102.012C135.68 100.684 135.778 99.375 135.856 98.0859C135.934 96.7969 136.003 95.5566 136.061 94.3652C136.12 93.1738 136.169 92.0508 136.208 90.9961C136.286 88.5352 136.335 86.1816 136.354 83.9355C136.335 81.5918 136.286 79.1895 136.208 76.7285C136.169 75.6738 136.12 74.5703 136.061 73.418C136.003 72.2461 135.934 71.0547 135.856 69.8438C135.778 68.6328 135.68 67.4219 135.563 66.2109C135.466 64.9805 135.348 63.7891 135.212 62.6367C137.653 62.7344 139.831 62.8125 141.745 62.8711C143.679 62.9102 145.397 62.9297 146.901 62.9297C148.386 62.9297 149.665 62.9199 150.739 62.9004C151.813 62.8613 152.692 62.8223 153.376 62.7832C154.177 62.7441 154.841 62.6953 155.368 62.6367C155.368 62.6172 155.368 62.793 155.368 63.1641C155.368 63.5352 155.378 64.0234 155.397 64.6289C155.417 65.2344 155.446 65.918 155.485 66.6797C155.544 67.4414 155.622 68.2129 155.72 68.9941C153.454 68.7793 151.471 68.6426 149.772 68.584C148.073 68.5059 146.618 68.4668 145.407 68.4668C144.899 68.4668 144.45 68.4668 144.059 68.4668C143.688 68.4668 143.337 68.4863 143.005 68.5254C142.966 70.6934 142.936 72.7344 142.917 74.6484C142.897 76.543 142.887 78.3398 142.887 80.0391C144.255 80 145.475 79.9512 146.55 79.8926C147.624 79.8145 148.542 79.7266 149.304 79.6289C150.182 79.5312 150.964 79.4238 151.647 79.3066C151.628 79.4434 151.618 79.5996 151.618 79.7754C151.598 79.9316 151.589 80.1172 151.589 80.332C151.589 80.5469 151.589 80.791 151.589 81.0645C151.589 81.6895 151.608 82.4414 151.647 83.3203C151.686 84.1797 151.764 85.1074 151.882 86.1035C149.772 85.8301 147.956 85.6641 146.432 85.6055C144.909 85.5273 143.727 85.4883 142.887 85.4883C142.887 87.5195 142.897 89.3359 142.917 90.9375C142.936 92.5195 142.956 93.916 142.975 95.127C143.014 96.3379 143.044 97.373 143.063 98.2324C143.102 99.0918 143.141 99.8047 143.18 100.371C145.173 100.332 146.95 100.234 148.512 100.078C150.075 99.9219 151.393 99.7656 152.468 99.6094C153.542 99.4336 154.362 99.2773 154.929 99.1406C155.495 99.0039 155.778 98.916 155.778 98.877C155.759 98.9746 155.749 99.082 155.749 99.1992C155.729 99.2969 155.72 99.4238 155.72 99.5801C155.72 99.7363 155.72 99.9219 155.72 100.137C155.72 100.684 155.739 101.416 155.778 102.334C155.817 103.252 155.915 104.365 156.071 105.674ZM183.77 105.674C182.324 105.674 180.977 105.713 179.727 105.791C178.477 105.889 177.129 106.025 175.684 106.201C175 104.072 174.297 101.953 173.574 99.8438C172.871 97.7344 172.129 95.5957 171.348 93.4277C170.566 95.6738 169.805 97.9004 169.062 100.107C168.34 102.314 167.598 104.482 166.836 106.611L158.633 106.201C159.531 104.463 160.4 102.734 161.24 101.016C162.08 99.2969 162.881 97.5684 163.643 95.8301C164.424 94.0918 165.176 92.334 165.898 90.5566C166.641 88.7598 167.354 86.9141 168.037 85.0195C166.65 81.582 165.166 78.0762 163.584 74.502C162.021 70.9082 160.352 67.1387 158.574 63.1934C159.336 63.1738 160.059 63.1543 160.742 63.1348C161.426 63.0957 162.09 63.0664 162.734 63.0469C163.398 63.0078 164.053 62.9785 164.697 62.959C165.361 62.9395 166.035 62.9102 166.719 62.8711C167.383 65.293 168.086 67.6172 168.828 69.8438C169.57 72.0703 170.312 74.248 171.055 76.377C171.719 74.3066 172.373 72.1582 173.018 69.9316C173.682 67.7051 174.346 65.3516 175.01 62.8711C176.729 62.9883 178.369 63.0469 179.932 63.0469C180.537 63.0469 181.133 63.0469 181.719 63.0469C182.305 63.0469 182.93 63.0273 183.594 62.9883C181.699 66.6406 180.01 70.2832 178.525 73.916C177.041 77.5293 175.645 81.1523 174.336 84.7852C175.918 88.6133 177.51 92.2461 179.111 95.6836C180.713 99.1016 182.266 102.432 183.77 105.674ZM188.089 101.514C188.089 100.01 188.05 98.5059 187.972 97.002C187.913 95.498 187.845 93.9941 187.767 92.4902C187.689 90.9668 187.611 89.4434 187.532 87.9199C187.474 86.377 187.445 84.8145 187.445 83.2324C187.445 81.5723 187.493 79.8926 187.591 78.1934C187.708 76.4746 187.923 74.8242 188.236 73.2422C188.548 71.6406 188.978 70.1465 189.525 68.7598C190.071 67.3535 190.784 66.1328 191.663 65.0977C192.542 64.0625 193.616 63.2422 194.886 62.6367C196.155 62.0312 197.65 61.7285 199.368 61.7285C201.009 61.7285 202.435 61.9922 203.646 62.5195C204.857 63.0273 205.882 63.7305 206.722 64.6289C207.581 65.5273 208.275 66.582 208.802 67.793C209.349 69.0039 209.769 70.3125 210.062 71.7188C210.374 73.125 210.589 74.5898 210.706 76.1133C210.823 77.6367 210.882 79.1504 210.882 80.6543C210.882 81.0449 210.872 81.3867 210.853 81.6797C210.853 81.9727 210.843 82.2949 210.823 82.6465C210.823 82.9785 210.804 83.3789 210.765 83.8477C210.745 84.3164 210.716 84.9316 210.677 85.6934C210.638 86.4355 210.589 87.3535 210.53 88.4473C210.491 89.541 210.443 90.8887 210.384 92.4902C210.325 94.0918 210.257 95.9863 210.179 98.1738C210.101 100.342 210.023 102.881 209.945 105.791L201.185 105.469C201.517 103.242 201.81 101.016 202.064 98.7891C202.337 96.543 202.562 94.4531 202.738 92.5195C201.234 92.4023 199.837 92.3438 198.548 92.3438C197.884 92.3438 197.259 92.3535 196.673 92.373C196.087 92.3926 195.57 92.4219 195.12 92.4609C195.179 93.4766 195.247 94.5508 195.325 95.6836C195.404 96.8164 195.491 97.959 195.589 99.1113C195.687 100.264 195.794 101.406 195.911 102.539C196.029 103.652 196.165 104.717 196.321 105.732L188.03 105.967C188.07 105.244 188.089 104.512 188.089 103.77C188.089 103.008 188.089 102.256 188.089 101.514ZM194.769 86.2793C195.355 86.3184 195.931 86.3379 196.497 86.3379C197.064 86.3379 197.62 86.3379 198.167 86.3379C200.257 86.3379 201.937 86.2793 203.206 86.1621C203.323 84.7754 203.441 83.3789 203.558 81.9727C203.695 80.5664 203.763 79.0625 203.763 77.4609C203.763 74.082 203.411 71.5137 202.708 69.7559C202.025 67.9785 201.009 67.0898 199.661 67.0898C198.919 67.0898 198.236 67.3535 197.611 67.8809C196.986 68.4082 196.439 69.2285 195.97 70.3418C195.521 71.4355 195.159 72.8223 194.886 74.502C194.632 76.1816 194.505 78.1641 194.505 80.4492C194.505 81.25 194.525 82.1094 194.564 83.0273C194.622 83.9258 194.691 85.0098 194.769 86.2793ZM239.795 106.025C239.345 106.025 238.906 106.016 238.476 105.996C238.066 105.977 237.646 105.967 237.216 105.967C236.396 105.967 235.625 105.977 234.902 105.996C234.179 106.016 233.554 106.045 233.027 106.084C232.382 106.123 231.806 106.162 231.298 106.201C231.572 103.271 231.787 100.42 231.943 97.6465C232.099 94.873 232.216 92.3926 232.295 90.2051C232.373 87.666 232.421 85.2539 232.441 82.9688C232.441 80.7422 232.402 78.4668 232.324 76.1426C232.285 75.1465 232.236 74.1016 232.177 73.0078C232.138 71.8945 232.08 70.7715 232.002 69.6387C231.943 68.4863 231.855 67.334 231.738 66.1816C231.64 65.0293 231.533 63.9062 231.416 62.8125C232.236 62.8711 232.998 62.9102 233.701 62.9297C234.404 62.9297 235.058 62.9297 235.664 62.9297C236.289 62.9297 236.855 62.9297 237.363 62.9297C237.871 62.9102 238.3 62.8906 238.652 62.8711C239.062 62.8516 239.423 62.832 239.736 62.8125C239.56 65.2539 239.423 67.6465 239.326 69.9902C239.228 72.334 239.16 74.4434 239.121 76.3184C239.062 78.5059 239.033 80.5859 239.033 82.5586V84.3457C240.244 82.8613 241.347 81.2598 242.343 79.541C243.359 77.8223 244.228 76.0449 244.951 74.209C245.673 72.3535 246.23 70.4785 246.621 68.584C247.031 66.6895 247.236 64.8242 247.236 62.9883V62.0508L257.197 62.9297C255.478 65.957 253.984 68.6328 252.714 70.957C251.445 73.2617 250.351 75.2539 249.433 76.9336C248.535 78.6133 247.802 80.0098 247.236 81.123C246.67 82.2363 246.23 83.1152 245.918 83.7598C247.304 84.1309 248.418 84.6484 249.257 85.3125C250.117 85.957 250.791 86.709 251.279 87.5684C251.767 88.4277 252.109 89.375 252.304 90.4102C252.519 91.4258 252.685 92.4805 252.802 93.5742C252.92 94.668 253.027 95.7715 253.125 96.8848C253.242 97.998 253.447 99.082 253.74 100.137C253.896 100.742 254.121 101.367 254.414 102.012C254.668 102.578 255 103.213 255.41 103.916C255.82 104.6 256.337 105.303 256.962 106.025L248.701 106.201C248.252 105.752 247.88 105.156 247.587 104.414C247.314 103.672 247.099 102.939 246.943 102.217C246.748 101.377 246.611 100.488 246.533 99.5508C246.435 98.4766 246.367 97.4316 246.328 96.416C246.308 95.3809 246.25 94.4043 246.152 93.4863C246.074 92.5684 245.937 91.7285 245.742 90.9668C245.546 90.1855 245.234 89.5215 244.804 88.9746C244.375 88.4082 243.798 87.9688 243.076 87.6562C242.373 87.3438 241.464 87.1875 240.351 87.1875C240.136 87.1875 239.921 87.1973 239.707 87.2168C239.492 87.2363 239.267 87.2656 239.033 87.3047C239.091 89.4141 239.17 92.0801 239.267 95.3027C239.384 98.5059 239.56 102.08 239.795 106.025ZM269.075 105.293L261.341 106.084C261.38 104.775 261.409 103.418 261.429 102.012C261.468 100.586 261.497 99.1699 261.516 97.7637C261.536 96.3574 261.555 94.9805 261.575 93.6328C261.595 92.2656 261.604 90.9766 261.604 89.7656C261.624 86.9141 261.634 84.1113 261.634 81.3574C261.614 78.8965 261.585 76.5137 261.546 74.209C261.526 73.2324 261.497 72.2266 261.458 71.1914C261.438 70.1562 261.409 69.1406 261.37 68.1445C261.331 67.1484 261.282 66.2109 261.223 65.332C261.184 64.4336 261.126 63.6328 261.048 62.9297L268.43 62.5781C268.391 63.7891 268.352 65.0391 268.313 66.3281C268.294 67.5977 268.274 68.8672 268.255 70.1367C268.235 71.3867 268.216 72.5977 268.196 73.7695C268.196 74.9414 268.196 76.0352 268.196 77.0508C268.196 82.1484 268.255 87.0117 268.372 91.6406C268.509 96.25 268.743 100.801 269.075 105.293ZM295.367 106.846C293.961 106.807 292.633 106.787 291.383 106.787C290.133 106.787 288.961 106.787 287.867 106.787C285.641 106.787 283.727 106.807 282.125 106.846C280.543 106.904 279.225 106.953 278.17 106.992C276.959 107.051 275.934 107.109 275.094 107.168C275.23 105.859 275.348 104.531 275.445 103.184C275.562 101.836 275.66 100.508 275.738 99.1992C275.816 97.8906 275.885 96.6211 275.943 95.3906C276.002 94.1602 276.051 92.998 276.09 91.9043C276.168 89.3652 276.217 86.9141 276.236 84.5508C276.217 82.207 276.168 79.8047 276.09 77.3438C276.051 76.2891 276.002 75.1855 275.943 74.0332C275.885 72.8613 275.816 71.6699 275.738 70.459C275.66 69.248 275.562 68.0371 275.445 66.8262C275.348 65.5957 275.23 64.4043 275.094 63.252L283.736 62.8125C283.365 67.2266 283.111 71.4844 282.975 75.5859C282.838 79.668 282.77 83.4375 282.77 86.8945C282.77 90.2148 282.799 93.0566 282.857 95.4199C282.936 97.7832 283.004 99.5801 283.062 100.811H283.18C284.703 100.811 286.188 100.693 287.633 100.459C289.098 100.225 290.406 99.9609 291.559 99.668C292.906 99.3359 294.176 98.9551 295.367 98.5254C295.348 98.7402 295.338 99.0137 295.338 99.3457C295.318 99.6191 295.309 99.9805 295.309 100.43C295.309 100.859 295.309 101.387 295.309 102.012C295.309 102.637 295.309 103.35 295.309 104.15C295.309 104.932 295.328 105.83 295.367 106.846ZM320.136 106.846C318.73 106.807 317.402 106.787 316.152 106.787C314.902 106.787 313.73 106.787 312.636 106.787C310.409 106.787 308.495 106.807 306.894 106.846C305.312 106.904 303.993 106.953 302.939 106.992C301.728 107.051 300.702 107.109 299.862 107.168C299.999 105.859 300.116 104.531 300.214 103.184C300.331 101.836 300.429 100.508 300.507 99.1992C300.585 97.8906 300.654 96.6211 300.712 95.3906C300.771 94.1602 300.82 92.998 300.859 91.9043C300.937 89.3652 300.986 86.9141 301.005 84.5508C300.986 82.207 300.937 79.8047 300.859 77.3438C300.82 76.2891 300.771 75.1855 300.712 74.0332C300.654 72.8613 300.585 71.6699 300.507 70.459C300.429 69.248 300.331 68.0371 300.214 66.8262C300.116 65.5957 299.999 64.4043 299.862 63.252L308.505 62.8125C308.134 67.2266 307.88 71.4844 307.743 75.5859C307.607 79.668 307.538 83.4375 307.538 86.8945C307.538 90.2148 307.568 93.0566 307.626 95.4199C307.704 97.7832 307.773 99.5801 307.831 100.811H307.948C309.472 100.811 310.956 100.693 312.402 100.459C313.866 100.225 315.175 99.9609 316.327 99.668C317.675 99.3359 318.945 98.9551 320.136 98.5254C320.116 98.7402 320.107 99.0137 320.107 99.3457C320.087 99.6191 320.077 99.9805 320.077 100.43C320.077 100.859 320.077 101.387 320.077 102.012C320.077 102.637 320.077 103.35 320.077 104.15C320.077 104.932 320.097 105.83 320.136 106.846ZM333.684 62.8125C333.079 68.457 332.541 73.9648 332.073 79.3359C331.623 84.707 331.282 90.0586 331.047 95.3906H326.477C326.418 90 326.233 84.5508 325.92 79.043C325.608 73.5352 325.139 68.125 324.514 62.8125H333.684ZM332.717 102.246C332.717 102.773 332.61 103.271 332.395 103.74C332.2 104.189 331.926 104.59 331.575 104.941C331.243 105.293 330.842 105.566 330.373 105.762C329.905 105.977 329.407 106.084 328.879 106.084C328.332 106.084 327.825 105.977 327.356 105.762C326.887 105.566 326.477 105.293 326.125 104.941C325.774 104.59 325.491 104.189 325.276 103.74C325.08 103.271 324.983 102.773 324.983 102.246C324.983 101.699 325.08 101.191 325.276 100.723C325.491 100.254 325.774 99.8438 326.125 99.4922C326.477 99.1406 326.887 98.8672 327.356 98.6719C327.825 98.457 328.332 98.3496 328.879 98.3496C329.407 98.3496 329.905 98.457 330.373 98.6719C330.842 98.8672 331.243 99.1406 331.575 99.4922C331.926 99.8438 332.2 100.254 332.395 100.723C332.61 101.191 332.717 101.699 332.717 102.246Z" fill="url(#paint0_linear_113_1)"/>
<defs>
<linearGradient id="paint0_linear_113_1" x1="219.5" y1="46" x2="219.5" y2="124" gradientUnits="userSpaceOnUse">
<stop stop-color="white"/>
<stop offset="1" stop-color="#D0C7C7"/>
</linearGradient>
</defs>
</svg>
