<svg width="460" height="155" viewBox="0 0 460 155" fill="none" xmlns="http://www.w3.org/2000/svg">
<polygon fill="#cecece" points=" 391.878,118.85 8.54931,140.762 54.191,32.3918 451.149,39.5599 391.878,118.85"></polygon>
<polygon fill="#cecece" points=" 36.3779,7.34961 327.878,30.0996 63.3779,30.0996 36.3779,7.34961"></polygon>
<polygon fill="#cecece" points=" 383.378,6.34961 459.878,37.3496 165.378,13.8496 383.378,6.34961"></polygon>
<polygon fill="#cecece" points=" 116.378,137.35 400.378,126.35 171.378,154.35 116.378,137.35"></polygon>
<polygon fill="#cecece" points=" 30.3779,140.35 112.878,140.35 150.878,153.35 30.3779,140.35"></polygon>
<polygon fill="#cecece" points=" 113.607,106.025 109.476,106.055 107.015,106.172 105.463,106.318 105.873,102.832 106.195,99.0234 106.429,95.1855 106.576,91.5527 106.722,83.4082 106.576,75.5273 106.429,72.1875 106.224,68.7598 105.931,65.5664 105.58,62.8125 107.484,62.8125 110.209,62.7832 112.113,62.666 113.607,62.5195 113.343,68.4082 113.197,74.0625 113.109,78.9551 113.08,82.6758 114.896,82.7344 116.625,82.7344 119.877,82.6758 122.25,82.5 122.22,81.2402 122.191,78.457 122.074,74.707 121.898,70.4883 121.605,66.3574 121.166,62.8125 123.041,62.8125 125.619,62.7832 127.464,62.666 128.9,62.5195 128.724,66.3867 128.607,70.2246 128.548,73.8867 128.49,77.2266 128.431,84.3457 128.49,91.2598 128.548,94.4238 128.607,97.793 128.724,101.191 128.9,104.473 124.916,104.531 122.543,104.619 121.048,104.766 121.488,100.957 121.781,96.8555 121.986,92.7539 122.132,88.9746 119.437,88.7988 116.976,88.7402 114.75,88.7695 113.08,88.8574 113.109,92.5195 113.197,96.8848 113.373,101.514 113.607,106.025"></polygon>
<defs>
<linearGradient id="paint0_linear_113_1" x1="219.5" y1="46" x2="219.5" y2="124" gradientUnits="userSpaceOnUse">
<stop stop-color="white"></stop>
<stop offset="1" stop-color="#D0C7C7"></stop>
</linearGradient>
</defs>
</svg>